<svg id="bold" enable-background="new 0 0 24 24" height="512" viewBox="0 0 24 24" width="512" xmlns="http://www.w3.org/2000/svg"><path d="m19.25 0h-14.5c-1.517 0-2.75 1.233-2.75 2.75v18.5c0 1.517 1.233 2.75 2.75 2.75h14.5c1.517 0 2.75-1.233 2.75-2.75v-18.5c0-1.517-1.233-2.75-2.75-2.75zm-.25 16.25c0 .414-.336.75-.75.75h-5.25v.77l2.125 1.7c.432.345.501.974.156 1.405-.197.247-.488.375-.781.375-.219 0-.44-.072-.624-.219l-1.876-1.5-1.875 1.5c-.43.344-1.061.275-1.405-.156-.345-.431-.275-1.061.156-1.405l2.124-1.7v-.77h-5.25c-.414 0-.75-.336-.75-.75v-7.5c0-.414.336-.75.75-.75h12.5c.414 0 .75.336.75.75z"/></svg>